<mxfile host="app.diagrams.net" modified="2020-12-10T18:52:20.690Z" agent="5.0 (Macintosh; Intel Mac OS X 10_14_6) AppleWebKit/537.36 (KHTML, like Gecko) Chrome/87.0.4280.88 Safari/537.36" etag="fMh3JPhLAGgjUxy1dZI3" version="13.10.9" type="github">
  <diagram name="Page-1" id="e7e014a7-5840-1c2e-5031-d8a46d1fe8dd">
    <mxGraphModel dx="1577" dy="1023" grid="1" gridSize="10" guides="1" tooltips="1" connect="1" arrows="1" fold="1" page="1" pageScale="1" pageWidth="1169" pageHeight="826" background="#ffffff" math="0" shadow="0">
      <root>
        <mxCell id="0" />
        <mxCell id="1" parent="0" />
        <mxCell id="2" value="Пользователь" style="swimlane;whiteSpace=wrap" parent="1" vertex="1">
          <mxGeometry x="159.5" width="285.5" height="820" as="geometry" />
        </mxCell>
        <mxCell id="5" value="" style="ellipse;shape=startState;fillColor=#000000;strokeColor=#ff0000;" parent="2" vertex="1">
          <mxGeometry x="100" y="40" width="30" height="30" as="geometry" />
        </mxCell>
        <mxCell id="6" value="" style="edgeStyle=elbowEdgeStyle;elbow=horizontal;verticalAlign=bottom;endArrow=open;endSize=8;strokeColor=#FF0000;endFill=1;rounded=0;exitX=0.495;exitY=0.882;exitDx=0;exitDy=0;exitPerimeter=0;" parent="2" source="5" target="7" edge="1">
          <mxGeometry x="100" y="40" as="geometry">
            <mxPoint x="115" y="110" as="targetPoint" />
          </mxGeometry>
        </mxCell>
        <mxCell id="7" value="Выбор файлов" style="" parent="2" vertex="1">
          <mxGeometry x="60" y="90" width="110" height="40" as="geometry" />
        </mxCell>
        <mxCell id="d8pQmIIH2FnaU7yjCs3p-50" value="" style="endArrow=open;strokeColor=#FF0000;endFill=1;rounded=0" edge="1" parent="2" source="7">
          <mxGeometry relative="1" as="geometry">
            <mxPoint x="275.31881533101046" y="278" as="sourcePoint" />
            <mxPoint x="115" y="192" as="targetPoint" />
          </mxGeometry>
        </mxCell>
        <mxCell id="d8pQmIIH2FnaU7yjCs3p-51" value="Выбрать&lt;br&gt;больше&lt;br&gt;файлов" style="rhombus;whiteSpace=wrap;html=1;fillColor=#ffffc0;strokeColor=#ff0000;" vertex="1" parent="2">
          <mxGeometry x="52.5" y="170" width="125" height="68" as="geometry" />
        </mxCell>
        <mxCell id="d8pQmIIH2FnaU7yjCs3p-52" value="Да" style="edgeStyle=orthogonalEdgeStyle;html=1;align=left;verticalAlign=bottom;endArrow=open;endSize=8;strokeColor=#ff0000;entryX=-0.004;entryY=0.548;entryDx=0;entryDy=0;entryPerimeter=0;exitX=0;exitY=0.5;exitDx=0;exitDy=0;" edge="1" source="d8pQmIIH2FnaU7yjCs3p-51" parent="2" target="7">
          <mxGeometry x="-0.7663" relative="1" as="geometry">
            <mxPoint x="55.5" y="132" as="targetPoint" />
            <Array as="points">
              <mxPoint x="16" y="204" />
              <mxPoint x="16" y="112" />
            </Array>
            <mxPoint x="1" as="offset" />
          </mxGeometry>
        </mxCell>
        <mxCell id="d8pQmIIH2FnaU7yjCs3p-56" value="Выбор&lt;br&gt;режима" style="rhombus;whiteSpace=wrap;html=1;fillColor=#ffffc0;strokeColor=#ff0000;" vertex="1" parent="2">
          <mxGeometry x="52.5" y="350" width="110" height="68" as="geometry" />
        </mxCell>
        <mxCell id="d8pQmIIH2FnaU7yjCs3p-53" value="Нет" style="edgeStyle=orthogonalEdgeStyle;html=1;align=left;verticalAlign=top;endArrow=open;endSize=8;strokeColor=#ff0000;" edge="1" parent="2">
          <mxGeometry x="-1" y="15" relative="1" as="geometry">
            <mxPoint x="326.5" y="270" as="targetPoint" />
            <mxPoint x="115.5" y="240" as="sourcePoint" />
            <Array as="points">
              <mxPoint x="116" y="270" />
            </Array>
            <mxPoint as="offset" />
          </mxGeometry>
        </mxCell>
        <mxCell id="d8pQmIIH2FnaU7yjCs3p-60" value="Сохранить" style="rhombus;whiteSpace=wrap;html=1;fillColor=#ffffc0;strokeColor=#ff0000;" vertex="1" parent="2">
          <mxGeometry x="150.5" y="470" width="100" height="50" as="geometry" />
        </mxCell>
        <mxCell id="d8pQmIIH2FnaU7yjCs3p-68" value="Сохранить" style="rhombus;whiteSpace=wrap;html=1;fillColor=#ffffc0;strokeColor=#ff0000;" vertex="1" parent="2">
          <mxGeometry x="162.5" y="670" width="90" height="50" as="geometry" />
        </mxCell>
        <mxCell id="3" value="Программа" style="swimlane;whiteSpace=wrap" parent="1" vertex="1">
          <mxGeometry x="445" width="280" height="820" as="geometry" />
        </mxCell>
        <mxCell id="15" value="Загрузка файлов" style="" parent="3" vertex="1">
          <mxGeometry x="45.5" y="90" width="110" height="40" as="geometry" />
        </mxCell>
        <mxCell id="30" value="Визуализация&#xa;реального&#xa;моделирования&#xa;тепловых полей" style="" parent="3" vertex="1">
          <mxGeometry x="115" y="400" width="110" height="58" as="geometry" />
        </mxCell>
        <mxCell id="d8pQmIIH2FnaU7yjCs3p-45" value="Проверка загруженных&lt;br&gt;данных" style="rhombus;whiteSpace=wrap;html=1;fillColor=#ffffc0;strokeColor=#ff0000;" vertex="1" parent="3">
          <mxGeometry x="41" y="232" width="114.5" height="78" as="geometry" />
        </mxCell>
        <mxCell id="8" value="Визуализация&#xa;моделирования&#xa;тепловых полей" style="" parent="3" vertex="1">
          <mxGeometry x="115" y="590" width="110" height="50" as="geometry" />
        </mxCell>
        <mxCell id="d8pQmIIH2FnaU7yjCs3p-66" value="Пакетное&lt;br&gt;сохранение&lt;br&gt;результатов&amp;nbsp;&lt;br&gt;реального&lt;br&gt;моделирования" style="html=1;" vertex="1" parent="3">
          <mxGeometry x="55" y="470" width="110" height="80" as="geometry" />
        </mxCell>
        <mxCell id="d8pQmIIH2FnaU7yjCs3p-73" value="Пакетное&lt;br&gt;сохранение&lt;br&gt;результатов&lt;br&gt;моделирования" style="html=1;" vertex="1" parent="3">
          <mxGeometry x="55" y="680" width="110" height="60" as="geometry" />
        </mxCell>
        <mxCell id="d8pQmIIH2FnaU7yjCs3p-74" value="" style="ellipse;html=1;shape=endState;fillColor=#000000;strokeColor=#ff0000;" vertex="1" parent="3">
          <mxGeometry x="195" y="780" width="30" height="30" as="geometry" />
        </mxCell>
        <mxCell id="d8pQmIIH2FnaU7yjCs3p-75" value="Ошибка!&lt;br&gt;Выберите другой&lt;br&gt;файл" style="html=1;" vertex="1" parent="3">
          <mxGeometry x="165" y="160" width="110" height="50" as="geometry" />
        </mxCell>
        <mxCell id="d8pQmIIH2FnaU7yjCs3p-46" value="Неверно" style="edgeStyle=orthogonalEdgeStyle;html=1;align=left;verticalAlign=bottom;endArrow=open;endSize=8;strokeColor=#ff0000;entryX=0.5;entryY=1;entryDx=0;entryDy=0;" edge="1" source="d8pQmIIH2FnaU7yjCs3p-45" parent="3" target="d8pQmIIH2FnaU7yjCs3p-75">
          <mxGeometry x="-0.8333" relative="1" as="geometry">
            <mxPoint x="195" y="290" as="targetPoint" />
            <Array as="points">
              <mxPoint x="220" y="271" />
            </Array>
            <mxPoint as="offset" />
          </mxGeometry>
        </mxCell>
        <mxCell id="d8pQmIIH2FnaU7yjCs3p-79" value="" style="edgeStyle=orthogonalEdgeStyle;html=1;verticalAlign=bottom;endArrow=open;endSize=8;strokeColor=#ff0000;entryX=0;entryY=0;entryDx=0;entryDy=0;exitX=1;exitY=0.5;exitDx=0;exitDy=0;" edge="1" source="d8pQmIIH2FnaU7yjCs3p-73" parent="3" target="d8pQmIIH2FnaU7yjCs3p-74">
          <mxGeometry relative="1" as="geometry">
            <mxPoint x="20" y="630" as="targetPoint" />
            <mxPoint x="20" y="570" as="sourcePoint" />
            <Array as="points">
              <mxPoint x="199" y="710" />
            </Array>
          </mxGeometry>
        </mxCell>
        <mxCell id="d8pQmIIH2FnaU7yjCs3p-81" value="" style="edgeStyle=orthogonalEdgeStyle;html=1;verticalAlign=bottom;endArrow=open;endSize=8;strokeColor=#ff0000;entryX=1;entryY=0.5;entryDx=0;entryDy=0;exitX=1.003;exitY=0.349;exitDx=0;exitDy=0;exitPerimeter=0;" edge="1" source="d8pQmIIH2FnaU7yjCs3p-66" parent="3" target="d8pQmIIH2FnaU7yjCs3p-74">
          <mxGeometry relative="1" as="geometry">
            <mxPoint x="20" y="630" as="targetPoint" />
            <mxPoint x="215" y="520" as="sourcePoint" />
            <Array as="points">
              <mxPoint x="265" y="498" />
              <mxPoint x="265" y="795" />
            </Array>
          </mxGeometry>
        </mxCell>
        <mxCell id="d8pQmIIH2FnaU7yjCs3p-47" value="Верно" style="edgeStyle=orthogonalEdgeStyle;html=1;align=left;verticalAlign=top;endArrow=open;endSize=8;strokeColor=#ff0000;entryX=0.5;entryY=0;entryDx=0;entryDy=0;exitX=0.5;exitY=1;exitDx=0;exitDy=0;" edge="1" source="d8pQmIIH2FnaU7yjCs3p-45" parent="1" target="d8pQmIIH2FnaU7yjCs3p-56">
          <mxGeometry x="-0.4724" y="-22" relative="1" as="geometry">
            <mxPoint x="263" y="470" as="targetPoint" />
            <mxPoint x="539.25" y="430" as="sourcePoint" />
            <Array as="points">
              <mxPoint x="543" y="330" />
              <mxPoint x="267" y="330" />
            </Array>
            <mxPoint as="offset" />
          </mxGeometry>
        </mxCell>
        <mxCell id="19" value="" style="endArrow=open;strokeColor=#FF0000;endFill=1;rounded=0;entryX=0;entryY=0.5;entryDx=0;entryDy=0;exitX=1;exitY=0.5;exitDx=0;exitDy=0;" parent="1" source="7" target="15" edge="1">
          <mxGeometry relative="1" as="geometry">
            <mxPoint x="340" y="260" as="sourcePoint" />
            <mxPoint x="370.0030088495575" y="333" as="targetPoint" />
          </mxGeometry>
        </mxCell>
        <mxCell id="d8pQmIIH2FnaU7yjCs3p-57" value="Реальное моделирование" style="edgeStyle=orthogonalEdgeStyle;html=1;align=left;verticalAlign=bottom;endArrow=open;endSize=8;strokeColor=#ff0000;entryX=0.5;entryY=0;entryDx=0;entryDy=0;" edge="1" source="d8pQmIIH2FnaU7yjCs3p-56" parent="1" target="30">
          <mxGeometry x="-1" relative="1" as="geometry">
            <mxPoint x="630" y="530" as="targetPoint" />
            <Array as="points">
              <mxPoint x="615" y="384" />
            </Array>
          </mxGeometry>
        </mxCell>
        <mxCell id="d8pQmIIH2FnaU7yjCs3p-58" value="Моделирование" style="edgeStyle=orthogonalEdgeStyle;html=1;align=left;verticalAlign=top;endArrow=open;endSize=8;strokeColor=#ff0000;exitX=0.5;exitY=1;exitDx=0;exitDy=0;entryX=0;entryY=0.5;entryDx=0;entryDy=0;" edge="1" source="d8pQmIIH2FnaU7yjCs3p-56" parent="1" target="8">
          <mxGeometry x="-1" relative="1" as="geometry">
            <mxPoint x="460" y="460" as="targetPoint" />
          </mxGeometry>
        </mxCell>
        <mxCell id="17" value="" style="endArrow=open;strokeColor=#FF0000;endFill=1;rounded=0;exitX=0.5;exitY=1;exitDx=0;exitDy=0;entryX=1;entryY=0.5;entryDx=0;entryDy=0;" parent="1" source="15" target="d8pQmIIH2FnaU7yjCs3p-51" edge="1">
          <mxGeometry relative="1" as="geometry">
            <mxPoint x="340" y="350" as="targetPoint" />
          </mxGeometry>
        </mxCell>
        <mxCell id="d8pQmIIH2FnaU7yjCs3p-65" value="" style="edgeStyle=orthogonalEdgeStyle;html=1;verticalAlign=bottom;endArrow=open;endSize=8;strokeColor=#ff0000;exitX=0;exitY=0.5;exitDx=0;exitDy=0;entryX=0.5;entryY=0;entryDx=0;entryDy=0;" edge="1" source="30" parent="1" target="d8pQmIIH2FnaU7yjCs3p-60">
          <mxGeometry relative="1" as="geometry">
            <mxPoint x="425" y="500" as="targetPoint" />
            <mxPoint x="425" y="440" as="sourcePoint" />
          </mxGeometry>
        </mxCell>
        <mxCell id="d8pQmIIH2FnaU7yjCs3p-61" value="Да" style="edgeStyle=orthogonalEdgeStyle;html=1;align=left;verticalAlign=bottom;endArrow=open;endSize=8;strokeColor=#ff0000;" edge="1" source="d8pQmIIH2FnaU7yjCs3p-60" parent="1" target="d8pQmIIH2FnaU7yjCs3p-66">
          <mxGeometry x="-1" relative="1" as="geometry">
            <mxPoint x="500" y="620" as="targetPoint" />
            <Array as="points">
              <mxPoint x="460" y="495" />
              <mxPoint x="460" y="495" />
            </Array>
          </mxGeometry>
        </mxCell>
        <mxCell id="d8pQmIIH2FnaU7yjCs3p-69" value="Нет" style="edgeStyle=orthogonalEdgeStyle;html=1;align=left;verticalAlign=bottom;endArrow=open;endSize=8;strokeColor=#ff0000;entryX=0;entryY=0.5;entryDx=0;entryDy=0;" edge="1" source="d8pQmIIH2FnaU7yjCs3p-68" parent="1" target="d8pQmIIH2FnaU7yjCs3p-74">
          <mxGeometry x="-0.7582" relative="1" as="geometry">
            <mxPoint x="600" y="760" as="targetPoint" />
            <Array as="points">
              <mxPoint x="367" y="795" />
            </Array>
            <mxPoint as="offset" />
          </mxGeometry>
        </mxCell>
        <mxCell id="d8pQmIIH2FnaU7yjCs3p-70" value="Да" style="edgeStyle=orthogonalEdgeStyle;html=1;align=left;verticalAlign=top;endArrow=open;endSize=8;strokeColor=#ff0000;" edge="1" source="d8pQmIIH2FnaU7yjCs3p-68" parent="1">
          <mxGeometry x="-1" y="25" relative="1" as="geometry">
            <mxPoint x="500" y="695" as="targetPoint" />
            <Array as="points">
              <mxPoint x="480" y="695" />
              <mxPoint x="480" y="695" />
            </Array>
            <mxPoint as="offset" />
          </mxGeometry>
        </mxCell>
        <mxCell id="d8pQmIIH2FnaU7yjCs3p-72" value="" style="edgeStyle=orthogonalEdgeStyle;html=1;verticalAlign=bottom;endArrow=open;endSize=8;strokeColor=#ff0000;exitX=0.5;exitY=1;exitDx=0;exitDy=0;entryX=0.5;entryY=0;entryDx=0;entryDy=0;" edge="1" source="8" parent="1" target="d8pQmIIH2FnaU7yjCs3p-68">
          <mxGeometry relative="1" as="geometry">
            <mxPoint x="425" y="620" as="targetPoint" />
            <mxPoint x="425" y="560" as="sourcePoint" />
          </mxGeometry>
        </mxCell>
        <mxCell id="d8pQmIIH2FnaU7yjCs3p-77" value="" style="edgeStyle=orthogonalEdgeStyle;html=1;verticalAlign=bottom;endArrow=open;endSize=8;strokeColor=#ff0000;exitX=0.5;exitY=0;exitDx=0;exitDy=0;entryX=0.822;entryY=-0.011;entryDx=0;entryDy=0;entryPerimeter=0;" edge="1" source="d8pQmIIH2FnaU7yjCs3p-75" parent="1" target="7">
          <mxGeometry relative="1" as="geometry">
            <mxPoint x="310" y="88" as="targetPoint" />
            <mxPoint x="670" y="150" as="sourcePoint" />
            <Array as="points">
              <mxPoint x="665" y="60" />
              <mxPoint x="310" y="60" />
            </Array>
          </mxGeometry>
        </mxCell>
        <mxCell id="d8pQmIIH2FnaU7yjCs3p-62" value="Нет" style="edgeStyle=orthogonalEdgeStyle;html=1;align=left;verticalAlign=top;endArrow=open;endSize=8;strokeColor=#ff0000;entryX=0.5;entryY=0;entryDx=0;entryDy=0;" edge="1" source="d8pQmIIH2FnaU7yjCs3p-60" parent="1" target="d8pQmIIH2FnaU7yjCs3p-74">
          <mxGeometry x="-1" relative="1" as="geometry">
            <mxPoint x="700" y="710" as="targetPoint" />
            <Array as="points">
              <mxPoint x="360.5" y="570" />
              <mxPoint x="690.5" y="570" />
              <mxPoint x="690.5" y="710" />
              <mxPoint x="655.5" y="710" />
            </Array>
          </mxGeometry>
        </mxCell>
      </root>
    </mxGraphModel>
  </diagram>
</mxfile>
